<svg xmlns="http://www.w3.org/2000/svg" height="800" width="1200" viewBox="-3.336525 -2.557425 28.91655 15.34455"><path d="M21.3836 10.2296c-.2263 0-.4375-.0902-.6035-.2555L13.961 3.1785c-.1056-.0902-.2716-.03-.2716.1203v6.0438c0 .4811-.3772.872-.8448.887-.4828 0-.875-.3758-.875-.857V.8784c0-.3007.1508-.5864.4073-.7517.3319-.2105.7845-.1504 1.056.1202l6.8193 6.7956c.1056.1052.2715.03.2715-.1053V.8783c0-.466.3772-.872.8449-.872.4828-.015.875.3758.875.842v8.4943c0 .3157-.166.6164-.4224.7668-.1358.0752-.2867.1202-.4375.1202M9.4047 4.261H6.87c-.4677 0-.875.3759-.875.842-.0151.481.3771.857.8448.857h1.4936c.1207 0 .2263.1052.2263.2254v2.1199c0 .1202-.1056.2255-.2263.2255h-3.138c-1.9915 0-3.5907-1.6237-3.4851-3.6083.1056-1.789 1.5992-3.2173 3.4247-3.2173h4.2394c.4828 0 .8901-.3608.8901-.842 0-.481-.3772-.8569-.86-.8569h-4.194C2.4646.0063.1413 2.1262.0055 4.8774c-.1358 2.9167 2.2178 5.3523 5.1295 5.3523h4.2696a.858.858 0 00.86-.857V5.118a.858.858 0 00-.86-.857" fill="#e8711f"/></svg>